<svg width="320" height="51" viewBox="0 0 320 51" fill="none" xmlns="http://www.w3.org/2000/svg">
<path d="M21 38L7 38L5.46392e-07 25.5L7 13L21 13L28 25.5L21 38ZM10.0054 18.3667L6.01074 25.5L10.0054 32.6334L17.9947 32.6334L21.9893 25.5L17.9947 18.3667L10.0054 18.3667Z" fill="url(#paint0_linear)"/>
<path d="M16.5 31L11.5 31L9 26L11.5 21L16.5 21L19 26L16.5 31Z" fill="url(#paint1_linear)"/>
<path d="M56.99 37C56.53 37 56.13 36.83 55.79 36.49C55.45 36.15 55.28 35.75 55.28 35.29V16.81C55.28 16.35 55.45 15.95 55.79 15.61C56.13 15.27 56.53 15.1 56.99 15.1H67.28C67.74 15.1 68.14 15.27 68.48 15.61C68.82 15.95 68.99 16.35 68.99 16.81V17.5C68.99 17.96 68.82 18.36 68.48 18.7C68.14 19.04 67.74 19.21 67.28 19.21H60.65C60.47 19.21 60.38 19.29 60.38 19.45V23.92C60.38 24.1 60.47 24.19 60.65 24.19H66.68C67.14 24.19 67.54 24.36 67.88 24.7C68.22 25.02 68.39 25.41 68.39 25.87V26.35C68.39 26.81 68.22 27.21 67.88 27.55C67.54 27.87 67.14 28.03 66.68 28.03H60.65C60.47 28.03 60.38 28.12 60.38 28.3V35.29C60.38 35.75 60.21 36.15 59.87 36.49C59.55 36.83 59.16 37 58.7 37H56.99ZM74.8025 37C74.3425 37 73.9425 36.83 73.6025 36.49C73.2625 36.15 73.0925 35.75 73.0925 35.29V16.81C73.0925 16.35 73.2625 15.95 73.6025 15.61C73.9425 15.27 74.3425 15.1 74.8025 15.1H76.5125C77.0325 15.1 77.5025 15.24 77.9225 15.52C78.3425 15.8 78.6525 16.18 78.8525 16.66L83.5025 27.97C83.5025 27.99 83.5125 28 83.5325 28C83.5525 28 83.5625 27.99 83.5625 27.97L88.2125 16.66C88.4125 16.18 88.7225 15.8 89.1425 15.52C89.5625 15.24 90.0325 15.1 90.5525 15.1H92.3825C92.8425 15.1 93.2425 15.27 93.5825 15.61C93.9225 15.95 94.0925 16.35 94.0925 16.81V35.29C94.0925 35.75 93.9225 36.15 93.5825 36.49C93.2425 36.83 92.8425 37 92.3825 37H90.9425C90.4825 37 90.0825 36.83 89.7425 36.49C89.4225 36.15 89.2625 35.75 89.2625 35.29V23.62C89.2625 23.6 89.2525 23.59 89.2325 23.59C89.1925 23.59 89.1725 23.6 89.1725 23.62L86.2925 30.43C86.0925 30.91 85.7725 31.29 85.3325 31.57C84.9125 31.85 84.4425 31.99 83.9225 31.99H83.1425C82.6225 31.99 82.1425 31.85 81.7025 31.57C81.2825 31.29 80.9725 30.91 80.7725 30.43L77.8925 23.62C77.8925 23.6 77.8725 23.59 77.8325 23.59C77.8125 23.59 77.8025 23.6 77.8025 23.62V35.29C77.8025 35.75 77.6325 36.15 77.2925 36.49C76.9725 36.83 76.5825 37 76.1225 37H74.8025Z" fill="url(#paint2_linear)"/>
<path d="M99.82 17.14C99.54 17.14 99.3 17.04 99.1 16.84C98.9 16.64 98.8 16.4 98.8 16.12C98.8 15.84 98.9 15.6 99.1 15.4C99.3 15.2 99.54 15.1 99.82 15.1H113.2C113.48 15.1 113.72 15.2 113.92 15.4C114.12 15.6 114.22 15.84 114.22 16.12C114.22 16.4 114.12 16.64 113.92 16.84C113.72 17.04 113.48 17.14 113.2 17.14H107.98C107.8 17.14 107.71 17.23 107.71 17.41V35.8C107.71 36.12 107.59 36.4 107.35 36.64C107.13 36.88 106.85 37 106.51 37C106.17 37 105.88 36.88 105.64 36.64C105.42 36.4 105.31 36.12 105.31 35.8V17.41C105.31 17.23 105.22 17.14 105.04 17.14H99.82ZM120.964 17.29V25.27C120.964 25.45 121.054 25.54 121.234 25.54H123.364C125.744 25.54 127.494 25.16 128.614 24.4C129.734 23.62 130.294 22.47 130.294 20.95C130.294 18.15 128.184 16.75 123.964 16.75C123.064 16.75 122.154 16.83 121.234 16.99C121.054 17.03 120.964 17.13 120.964 17.29ZM120.604 36.64C120.384 36.88 120.104 37 119.764 37C119.424 37 119.134 36.88 118.894 36.64C118.674 36.4 118.564 36.12 118.564 35.8V16.96C118.564 16.46 118.724 16.03 119.044 15.67C119.364 15.29 119.764 15.07 120.244 15.01C121.424 14.87 122.734 14.8 124.174 14.8C126.974 14.8 129.084 15.32 130.504 16.36C131.944 17.38 132.664 18.84 132.664 20.74C132.664 22.26 132.254 23.53 131.434 24.55C130.634 25.55 129.484 26.24 127.984 26.62C127.964 26.62 127.954 26.64 127.954 26.68C127.954 26.7 127.964 26.71 127.984 26.71C128.844 27.21 129.724 28.51 130.624 30.61L132.784 35.86C132.904 36.12 132.874 36.38 132.694 36.64C132.534 36.88 132.304 37 132.004 37C131.624 37 131.274 36.89 130.954 36.67C130.654 36.45 130.434 36.17 130.294 35.83L128.194 30.67C127.594 29.23 127.024 28.34 126.484 28C125.964 27.64 124.924 27.46 123.364 27.46H121.234C121.054 27.46 120.964 27.54 120.964 27.7V35.8C120.964 36.12 120.844 36.4 120.604 36.64ZM144.13 17.29L140.47 28.45C140.45 28.51 140.46 28.57 140.5 28.63C140.54 28.67 140.59 28.69 140.65 28.69H147.7C147.76 28.69 147.8 28.67 147.82 28.63C147.86 28.57 147.88 28.51 147.88 28.45L144.22 17.29C144.22 17.27 144.21 17.26 144.19 17.26C144.15 17.26 144.13 17.27 144.13 17.29ZM136.42 37C136.12 37 135.88 36.88 135.7 36.64C135.52 36.38 135.48 36.11 135.58 35.83L142.42 16.36C142.56 15.98 142.79 15.68 143.11 15.46C143.45 15.22 143.82 15.1 144.22 15.1C144.62 15.1 144.98 15.22 145.3 15.46C145.64 15.68 145.88 15.98 146.02 16.36L152.83 35.8C152.93 36.1 152.89 36.38 152.71 36.64C152.53 36.88 152.29 37 151.99 37C151.59 37 151.23 36.89 150.91 36.67C150.61 36.43 150.4 36.13 150.28 35.77L148.69 30.85C148.63 30.69 148.51 30.61 148.33 30.61H140.02C139.86 30.61 139.75 30.69 139.69 30.85L138.04 35.83C137.92 36.19 137.71 36.48 137.41 36.7C137.13 36.9 136.8 37 136.42 37ZM158.61 17.32V34.78C158.61 34.94 158.7 35.04 158.88 35.08C159.66 35.22 160.54 35.29 161.52 35.29C164.42 35.29 166.54 34.54 167.88 33.04C169.24 31.54 169.92 29.11 169.92 25.75C169.92 22.69 169.23 20.44 167.85 19C166.49 17.54 164.38 16.81 161.52 16.81C160.54 16.81 159.66 16.88 158.88 17.02C158.7 17.06 158.61 17.16 158.61 17.32ZM157.89 37.09C157.41 37.03 157.01 36.82 156.69 36.46C156.37 36.08 156.21 35.64 156.21 35.14V16.96C156.21 16.46 156.36 16.03 156.66 15.67C156.98 15.29 157.39 15.07 157.89 15.01C158.99 14.87 160.2 14.8 161.52 14.8C168.64 14.8 172.2 18.45 172.2 25.75C172.2 33.45 168.64 37.3 161.52 37.3C160.2 37.3 158.99 37.23 157.89 37.09ZM179.046 36.64C178.806 36.88 178.506 37 178.146 37C177.786 37 177.476 36.88 177.216 36.64C176.976 36.38 176.856 36.07 176.856 35.71V16.39C176.856 16.03 176.976 15.73 177.216 15.49C177.476 15.23 177.786 15.1 178.146 15.1C178.506 15.1 178.806 15.23 179.046 15.49C179.306 15.73 179.436 16.03 179.436 16.39V35.71C179.436 36.07 179.306 36.38 179.046 36.64ZM187.428 36.67C187.208 36.89 186.938 37 186.618 37C186.298 37 186.018 36.89 185.778 36.67C185.558 36.45 185.448 36.17 185.448 35.83V16.33C185.448 15.99 185.568 15.7 185.808 15.46C186.048 15.22 186.338 15.1 186.678 15.1C187.498 15.1 188.118 15.46 188.538 16.18L198.498 33.07C198.498 33.09 198.518 33.1 198.558 33.1C198.578 33.1 198.588 33.09 198.588 33.07V16.27C198.588 15.93 198.698 15.65 198.918 15.43C199.158 15.21 199.438 15.1 199.758 15.1C200.078 15.1 200.348 15.21 200.568 15.43C200.808 15.65 200.928 15.93 200.928 16.27V35.77C200.928 36.11 200.808 36.4 200.568 36.64C200.328 36.88 200.038 37 199.698 37C198.878 37 198.258 36.64 197.838 35.92L187.878 19.03C187.878 19.01 187.858 19 187.818 19C187.798 19 187.788 19.01 187.788 19.03V35.83C187.788 36.17 187.668 36.45 187.428 36.67ZM214.865 37.3C211.865 37.3 209.415 36.29 207.515 34.27C205.615 32.23 204.665 29.49 204.665 26.05C204.665 22.57 205.625 19.83 207.545 17.83C209.465 15.81 212.075 14.8 215.375 14.8C216.955 14.8 218.385 14.95 219.665 15.25C219.965 15.31 220.205 15.47 220.385 15.73C220.585 15.97 220.685 16.24 220.685 16.54C220.685 16.8 220.575 17.01 220.355 17.17C220.135 17.33 219.895 17.37 219.635 17.29C218.335 16.93 216.985 16.75 215.585 16.75C212.925 16.75 210.845 17.57 209.345 19.21C207.865 20.83 207.125 23.11 207.125 26.05C207.125 28.91 207.845 31.18 209.285 32.86C210.745 34.52 212.675 35.35 215.075 35.35C216.535 35.35 217.885 35.14 219.125 34.72C219.285 34.66 219.365 34.54 219.365 34.36V26.44C219.365 26.26 219.285 26.17 219.125 26.17H213.245C212.965 26.17 212.735 26.08 212.555 25.9C212.375 25.7 212.285 25.47 212.285 25.21C212.285 24.95 212.375 24.73 212.555 24.55C212.735 24.35 212.965 24.25 213.245 24.25H219.965C220.425 24.25 220.825 24.42 221.165 24.76C221.505 25.1 221.675 25.5 221.675 25.96V34.27C221.675 34.79 221.525 35.27 221.225 35.71C220.945 36.13 220.565 36.42 220.085 36.58C218.565 37.06 216.825 37.3 214.865 37.3ZM228.651 36.64C228.431 36.88 228.151 37 227.811 37C227.471 37 227.181 36.88 226.941 36.64C226.721 36.4 226.611 36.12 226.611 35.8V16.3C226.611 15.98 226.721 15.7 226.941 15.46C227.181 15.22 227.471 15.1 227.811 15.1C228.151 15.1 228.431 15.22 228.651 15.46C228.891 15.7 229.011 15.98 229.011 16.3V24.01C229.011 24.17 229.091 24.25 229.251 24.25H239.151C239.311 24.25 239.391 24.17 239.391 24.01V16.3C239.391 15.98 239.501 15.7 239.721 15.46C239.961 15.22 240.251 15.1 240.591 15.1C240.931 15.1 241.211 15.22 241.431 15.46C241.671 15.7 241.791 15.98 241.791 16.3V35.8C241.791 36.12 241.671 36.4 241.431 36.64C241.211 36.88 240.931 37 240.591 37C240.251 37 239.961 36.88 239.721 36.64C239.501 36.4 239.391 36.12 239.391 35.8V26.44C239.391 26.26 239.311 26.17 239.151 26.17H229.251C229.091 26.17 229.011 26.26 229.011 26.44V35.8C229.011 36.12 228.891 36.4 228.651 36.64ZM260.264 19.15C259.064 17.59 257.324 16.81 255.044 16.81C252.764 16.81 251.014 17.59 249.794 19.15C248.594 20.71 247.994 23.01 247.994 26.05C247.994 29.09 248.594 31.39 249.794 32.95C251.014 34.51 252.764 35.29 255.044 35.29C257.324 35.29 259.064 34.51 260.264 32.95C261.484 31.39 262.094 29.09 262.094 26.05C262.094 23.01 261.484 20.71 260.264 19.15ZM262.004 34.36C260.324 36.32 258.004 37.3 255.044 37.3C252.084 37.3 249.754 36.32 248.054 34.36C246.374 32.38 245.534 29.61 245.534 26.05C245.534 22.49 246.374 19.73 248.054 17.77C249.754 15.79 252.084 14.8 255.044 14.8C258.004 14.8 260.324 15.79 262.004 17.77C263.704 19.73 264.554 22.49 264.554 26.05C264.554 29.61 263.704 32.38 262.004 34.36ZM281.23 35.35C279.93 36.65 278.05 37.3 275.59 37.3C273.13 37.3 271.25 36.65 269.95 35.35C268.65 34.03 268 32.08 268 29.5V16.33C268 15.99 268.12 15.7 268.36 15.46C268.6 15.22 268.88 15.1 269.2 15.1C269.54 15.1 269.83 15.22 270.07 15.46C270.31 15.7 270.43 15.99 270.43 16.33V29.59C270.43 31.53 270.85 32.96 271.69 33.88C272.55 34.8 273.86 35.26 275.62 35.26C277.38 35.26 278.69 34.8 279.55 33.88C280.41 32.96 280.84 31.53 280.84 29.59V16.27C280.84 15.93 280.95 15.65 281.17 15.43C281.41 15.21 281.69 15.1 282.01 15.1C282.33 15.1 282.6 15.21 282.82 15.43C283.06 15.65 283.18 15.93 283.18 16.27V29.5C283.18 32.08 282.53 34.03 281.23 35.35ZM293.155 26.71C289.015 25.31 286.945 23.12 286.945 20.14C286.945 18.46 287.485 17.15 288.565 16.21C289.645 15.27 291.155 14.8 293.095 14.8C294.895 14.8 296.565 15.07 298.105 15.61C298.425 15.73 298.685 15.94 298.885 16.24C299.085 16.52 299.185 16.84 299.185 17.2C299.185 17.46 299.075 17.66 298.855 17.8C298.635 17.92 298.405 17.93 298.165 17.83C296.545 17.11 294.915 16.75 293.275 16.75C292.075 16.75 291.105 17.03 290.365 17.59C289.645 18.15 289.285 19 289.285 20.14C289.285 22.1 290.595 23.52 293.215 24.4C295.695 25.22 297.435 26.16 298.435 27.22C299.435 28.28 299.935 29.64 299.935 31.3C299.935 33.26 299.345 34.75 298.165 35.77C296.985 36.79 295.255 37.3 292.975 37.3C291.255 37.3 289.705 36.99 288.325 36.37C287.625 36.05 287.275 35.49 287.275 34.69C287.275 34.43 287.385 34.24 287.605 34.12C287.825 34 288.045 34 288.265 34.12C289.625 34.9 291.135 35.29 292.795 35.29C295.955 35.29 297.535 33.96 297.535 31.3C297.535 30.22 297.195 29.32 296.515 28.6C295.835 27.88 294.715 27.25 293.155 26.71ZM305.987 37C305.527 37 305.127 36.83 304.787 36.49C304.447 36.15 304.277 35.75 304.277 35.29V16.81C304.277 16.35 304.447 15.95 304.787 15.61C305.127 15.27 305.527 15.1 305.987 15.1H316.067C316.347 15.1 316.587 15.2 316.787 15.4C316.987 15.6 317.087 15.83 317.087 16.09C317.087 16.35 316.987 16.59 316.787 16.81C316.587 17.01 316.347 17.11 316.067 17.11H306.947C306.767 17.11 306.677 17.19 306.677 17.35V24.01C306.677 24.17 306.767 24.25 306.947 24.25H315.527C315.807 24.25 316.037 24.35 316.217 24.55C316.397 24.73 316.487 24.95 316.487 25.21C316.487 25.47 316.397 25.7 316.217 25.9C316.037 26.08 315.807 26.17 315.527 26.17H306.947C306.767 26.17 306.677 26.26 306.677 26.44V34.75C306.677 34.91 306.767 34.99 306.947 34.99H316.067C316.347 34.99 316.587 35.1 316.787 35.32C316.987 35.52 317.087 35.75 317.087 36.01C317.087 36.27 316.987 36.5 316.787 36.7C316.587 36.9 316.347 37 316.067 37H305.987Z" fill="url(#paint3_linear)"/>
<rect x="37" width="1" height="51" fill="#BCBCBC"/>
<defs>
<linearGradient id="paint0_linear" x1="5.46392e-07" y1="25.5" x2="28" y2="25.5" gradientUnits="userSpaceOnUse">
<stop stop-color="#FFAB00"/>
<stop offset="1" stop-color="#F2565A"/>
</linearGradient>
<linearGradient id="paint1_linear" x1="9" y1="26" x2="19" y2="26" gradientUnits="userSpaceOnUse">
<stop stop-color="#FFAB00"/>
<stop offset="1" stop-color="#F2565A"/>
</linearGradient>
<linearGradient id="paint2_linear" x1="53" y1="8.5" x2="100.5" y2="9" gradientUnits="userSpaceOnUse">
<stop stop-color="#FFAB01"/>
<stop offset="1" stop-color="#9A170E"/>
</linearGradient>
<linearGradient id="paint3_linear" x1="293" y1="48" x2="156.5" y2="48" gradientUnits="userSpaceOnUse">
<stop stop-color="#FFAB00"/>
<stop offset="1" stop-color="#99160E"/>
</linearGradient>
</defs>
</svg>
